# xmcd
#
# Track frame offsets:
# 150
# 11720
# 30240
# 47033
# 69548
# 85615
# 112720
# 129308
# 147268
# 163003
#
# Disc length: 2521 seconds
#
#
# Revision: 0
# Processed by: cddbd v1.5PL3 Copyright (c) Steve Scherf et al.
# Submitted via: FreeRIP 2.70 
#
DISCID=7309d70a
DTITLE=Susan Lewis Wright - Down In Mexico
DYEAR=1993
DGENRE=Folk
TTITLE0=Woman's Lament (Wagners Lad/If I were President/I Never Will Marry)
TTITLE1=Runnin' After Me
TTITLE2=The Red Corvette Song
TTITLE3=Sailing/Water Is Wide
TTITLE4=Down in Mexico
TTITLE5=Rainy Afternoon
TTITLE6=Surely, Shirley
TTITLE7=Tomorrow Belongs To The Children
TTITLE8=Livin' In Your LOve
TTITLE9=My Funny Valentine
EXTD=
EXTT0=
EXTT1=
EXTT2=
EXTT3=
EXTT4=
EXTT5=
EXTT6=
EXTT7=
EXTT8=
EXTT9=
PLAYORDER=
